<svg xmlns="http://www.w3.org/2000/svg" xmlns:xlink="http://www.w3.org/1999/xlink" width="160" height="160" version="1.1" viewBox="0 0 160 160"><title>Group</title><desc>Created with Sketch.</desc><g id="Page-1" fill="none" fill-rule="evenodd" stroke="none" stroke-width="1"><g id="Group" fill="#000" transform="translate(64.000000, 0.000000)"><path id="Path" d="M16,112 C7.164,112 0,104.837 0,96 L0,16 C0,7.163 7.164,0 16,0 C24.836,0 32,7.163 32,16 L32,96 C32,104.837 24.836,112 16,112 L16,112 L16,112 Z"/><path id="Path" d="M32,144 C32,135.163 24.837,128 16,128 C7.163,128 0,135.163 0,144 C0,152.837 7.163,160 16,160 C24.837,160 32,152.837 32,144 Z"/></g></g></svg>