<svg xmlns="http://www.w3.org/2000/svg" xmlns:xlink="http://www.w3.org/1999/xlink" width="256" height="256" version="1.1" viewBox="0 0 256 256"><title>Untitled 3</title><desc>Created with Sketch.</desc><g id="Page-1" fill="none" fill-rule="evenodd" stroke="none" stroke-width="1"><path id="Shape" fill="#000" d="M224,48 L32,48 C14.355,48 0,62.355 0,80 L0,176 C0,193.645 14.355,208 32,208 L224,208 C241.645,208 256,193.645 256,176 L256,80 C256,62.355 241.645,48 224,48 Z M128,143.999 C129.318,143.999 130.637,143.673 131.831,143.022 L219.829,95.023 C223.708,92.908 225.137,88.048 223.021,84.169 C220.906,80.291 216.045,78.861 212.167,80.977 L128,126.887 L43.832,80.978 C39.953,78.862 35.094,80.292 32.978,84.17 C30.863,88.049 32.291,92.908 36.17,95.024 L124.168,143.023 C125.363,143.673 126.682,143.999 128,143.999 Z"/></g></svg>