<svg xmlns="http://www.w3.org/2000/svg" xmlns:xlink="http://www.w3.org/1999/xlink" width="190" height="192" version="1.1" viewBox="0 0 190 192"><title>Untitled 2</title><desc>Created with Sketch.</desc><g id="Page-1" fill="none" fill-rule="evenodd" stroke="none" stroke-width="1"><path id="Shape" fill="#000" d="M185.313,52.317 L62.172,175.458 L0.002,191.001 L15.544,128.827 L138.685,5.687 C141.808,2.563 145.903,1 149.998,1 C154.093,1 158.188,2.562 161.311,5.687 L185.313,29.689 C191.562,35.938 191.562,46.069 185.313,52.317 L185.313,52.317 Z M53.993,161.01 L57.993,157.009 L33.992,133.009 L29.992,137.009 L21.991,169.011 L53.993,161.01 L53.993,161.01 Z M129.997,85.005 L105.995,61.004 L41.993,125.007 L65.993,149.008 L129.997,85.005 L129.997,85.005 Z M149.998,65.004 L125.997,41.003 L113.996,53.003 L137.997,77.004 L149.998,65.004 L149.998,65.004 Z M174,41.003 L149.998,17.003 L137.311,29.69 L161.311,53.691 L174,41.003 L174,41.003 Z"/></g></svg>
