<svg xmlns="http://www.w3.org/2000/svg" xmlns:xlink="http://www.w3.org/1999/xlink" width="160" height="160" version="1.1" viewBox="0 0 160 160"><title>Untitled 3</title><desc>Created with Sketch.</desc><g id="Page-1" fill="none" fill-rule="evenodd" stroke="none" stroke-width="1"><path id="Path" fill="#000" d="M144,64 L96,64 L96,16 C96,7.163 88.836,0 80,0 C71.164,0 64,7.163 64,16 L64,64 L16,64 C7.164,64 0,71.163 0,80 C0,88.836 7.164,96 16,96 L64,96 L64,144 C64,152.836 71.164,160 80,160 C88.836,160 96,152.836 96,144 L96,96 L144,96 C152.836,96 160,88.836 160,80 C160,71.163 152.836,64 144,64 L144,64 Z"/></g></svg>
