<svg xmlns="http://www.w3.org/2000/svg" xmlns:xlink="http://www.w3.org/1999/xlink" width="256" height="256" version="1.1" viewBox="0 0 256 256"><title>Untitled 2</title><desc>Created with Sketch.</desc><g id="Page-1" fill="none" fill-rule="evenodd" stroke="none" stroke-width="1"><path id="Shape" fill="#000" d="M153.973,70.398 C162.553,63.056 168,52.152 168,40 C168,17.944 150.056,0 128,0 C105.944,0 88,17.944 88,40 C88,52.151 93.447,63.054 102.027,70.396 C84.191,79.773 72,98.489 72,120 L72,176 C72,184.837 79.163,192 88,192 L88,240 C88,248.837 95.163,256 104,256 L152,256 C160.837,256 168,248.837 168,240 L168,192 C176.837,192 184,184.837 184,176 L184,120 C184,98.49 171.808,79.775 153.973,70.398 L153.973,70.398 Z M128,16 C141.255,16 152,26.746 152,40 C152,53.255 141.255,64 128,64 C114.745,64 104,53.255 104,40 C104,26.746 114.745,16 128,16 L128,16 Z M168,176 L160,176 L160,124 C160,121.791 158.209,120 156,120 C153.791,120 152,121.791 152,124 L152,240 L132,240 L132,176 C132,173.791 130.209,172 128,172 C125.791,172 124,173.791 124,176 L124,240 L104,240 L104,124 C104,121.791 102.209,120 100,120 C97.791,120 96,121.791 96,124 L96,176 L88,176 L88,120 C88,97.91 105.908,80 128,80 C150.092,80 168,97.91 168,120 L168,176 L168,176 Z"/></g></svg>
